<svg width="129" height="128" viewBox="0 0 129 128" fill="none" xmlns="http://www.w3.org/2000/svg">
<path d="M0 0V44.5H5V4H124V51H50.5V56.5H129V0H0Z" fill="white"/>
<path d="M24.5 12.5C20.576 17.7721 21.5123 20.7279 24.5 26C18.0755 25.4439 15.5817 29.958 13 34L9 48C5.5172 56.1022 5.11581 59.1317 7 62C11.2652 64.3037 11.5683 64.3645 15.5 62L20 48V83.5C17.8951 81.2037 16.3307 80.6037 13 80.5C5.84804 81.268 3.27536 85.5 3 90.5C2.72464 95.5 5 96 5 99.5C5 103 0.661057 101.448 0 105V127.5H24.5V105C24.3659 102.73 24.0415 101.504 22.5 99.5H38C35.6524 101.252 35.1499 102.508 35 105V127.5H59.5V105C58.5673 102.191 57.856 100.767 55 99.5C58.2456 95.8867 58.7196 93.168 57 87C54.1973 82.2077 51.6271 81.0287 46 80.5V36.5L64.5 26C68.3908 23.7193 69.881 23.8093 69 19C66.8596 14.2731 66.3552 15.6448 61 17L41.5 24.5C41.9923 22.8827 42.1966 21.6023 42.5 19C42.8484 14.4323 41.7877 12.4996 38 10C32.1356 8.13291 29.1383 8.48144 24.5 12.5Z" fill="white"/>
<path d="M69 106.5C69.2272 102.97 70.0546 101.356 73.5 99.5C71.6099 97.4195 71.0216 95.8154 71 92C71.3117 84.7774 73.7862 82.386 81.5 80.5C88.0088 81.1935 90.3578 83.4693 92.5 90.5C92.2292 95.8162 91.5088 97.6597 89.5 99.5C93.9065 100.806 94.8703 102.1 95 105V127.5H69V106.5Z" fill="white"/>
<path d="M70.5 14.5V10.5H113.5V14.5H70.5Z" fill="white"/>
<path d="M77.5 28V23.5H120V28H77.5Z" fill="white"/>
<path d="M69 40.5V36.5H111.5V40.5H69Z" fill="white"/>
<path d="M104 104.5C104.39 101.149 105.442 100.016 109 99.5C105.587 97.4345 104.809 95.5072 105 91C105.847 84.214 108.291 82.1657 116 81.5C123.241 81.8915 125.494 84.0269 127 90.5C127.252 95.4085 126.427 97.3288 123.5 99.5C126.895 100.153 127.747 101.354 128 104.5V127.5H104V104.5Z" fill="white"/>
</svg>
