<svg width="443" height="166" viewBox="0 0 443 166" fill="none" xmlns="http://www.w3.org/2000/svg">
<path d="M314 38V82.5H319V42H438V89H364.5V94.5H443V38H314Z" fill="white"/>
<path d="M338.5 50C334.576 55.2721 335.512 58.7279 338.5 64C332.076 63.4439 329.582 67.958 327 72L323 86C319.517 94.1022 319.116 97.1317 321 100C325.265 102.304 325.568 102.365 329.5 100L334 86V121.5C331.895 119.204 330.331 118.604 327 118.5C319.848 119.268 317.275 123.5 317 128.5C316.725 133.5 319 134 319 137.5C319 141 314.661 139.448 314 143V165.5H338.5V143C338.366 140.73 338.042 139.504 336.5 137.5H352C349.652 139.252 349.15 140.508 349 143V165.5H373.5V143C372.567 140.191 371.856 138.767 369 137.5C372.246 133.887 372.72 131.168 371 125C368.197 120.208 365.627 119.029 360 118.5V74.5L378.5 64C382.391 61.7193 383.881 61.8093 383 57C380.86 52.2731 380.355 53.6448 375 55L355.5 62.5C355.992 60.8827 356.197 59.6023 356.5 57C356.848 52.4323 355.788 50.4996 352 48C346.136 46.1329 343.138 45.9814 338.5 50Z" fill="white"/>
<path d="M383 144.5C383.227 140.97 384.055 139.356 387.5 137.5C385.61 135.42 385.022 133.815 385 130C385.312 122.777 387.786 120.386 395.5 118.5C402.009 119.194 404.358 121.469 406.5 128.5C406.229 133.816 405.509 135.66 403.5 137.5C407.907 138.806 408.87 140.1 409 143V165.5H383V144.5Z" fill="white"/>
<path d="M384.5 52.5V48.5H427.5V52.5H384.5Z" fill="white"/>
<path d="M391.5 66V61.5H434V66H391.5Z" fill="white"/>
<path d="M383 78.5V74.5H425.5V78.5H383Z" fill="white"/>
<path d="M418 142.5C418.39 139.149 419.442 138.016 423 137.5C419.587 135.435 418.809 133.507 419 129C419.847 122.214 422.291 120.166 430 119.5C437.241 119.892 439.494 122.027 441 128.5C441.252 133.409 440.427 135.329 437.5 137.5C440.895 138.153 441.747 139.354 442 142.5V165.5H418V142.5Z" fill="white"/>
<path d="M6.696 76.328H18.972V83.148C21.3693 80.5027 23.9733 78.5187 26.784 77.196C29.6773 75.7907 32.6947 75.088 35.836 75.088C41.9533 75.088 45.8387 78.1053 47.492 84.14C52.452 78.1053 58.404 75.088 65.348 75.088C69.068 75.088 72.0853 76.452 74.4 79.18C76.7973 81.908 77.996 86.0827 77.996 91.704V148H65.844V92.572C65.844 89.2653 65.3067 86.992 64.232 85.752C63.1573 84.4293 61.628 83.768 59.644 83.768C57.8253 83.768 55.924 84.3053 53.94 85.38C51.956 86.372 50.1373 87.7773 48.484 89.596V91.704V148H36.332V92.572C36.332 89.2653 35.7947 86.992 34.72 85.752C33.6453 84.4293 32.116 83.768 30.132 83.768C28.396 83.768 26.536 84.3053 24.552 85.38C22.568 86.372 20.708 87.7773 18.972 89.596V148H6.696V76.328ZM89.8613 155.812C94.8213 155.812 98.2106 155.44 100.029 154.696C101.931 153.952 102.881 152.547 102.881 150.48C102.881 149.488 101.972 145.107 100.153 137.336L85.7693 76.328H99.1613L108.833 129.896L118.133 76.328H131.525L114.413 151.968C113.256 157.011 110.817 160.607 107.097 162.756C103.377 164.905 98.1693 165.98 91.4733 165.98H89.8613V155.812ZM140.652 47.56H165.576C174.256 47.56 180.539 49.916 184.424 54.628C188.392 59.34 190.376 66.2427 190.376 75.336C190.376 83.52 188.268 89.8853 184.052 94.432C179.836 98.9787 173.719 101.252 165.7 101.252H154.664V148H140.652V47.56ZM161.112 91.208C165.245 91.208 168.428 90.7533 170.66 89.844C172.975 88.9347 174.628 87.364 175.62 85.132C176.612 82.9 177.108 79.676 177.108 75.46C177.108 70.3347 176.736 66.5733 175.992 64.176C175.248 61.7787 173.76 60.084 171.528 59.092C169.379 58.1 165.948 57.604 161.236 57.604H154.664V91.208H161.112ZM200.23 47.56H214.242V137.956H239.91V148H200.23V47.56ZM273.199 149.116C264.767 149.116 258.319 146.512 253.855 141.304C249.474 136.096 247.035 128.945 246.539 119.852L258.939 116.504C259.352 122.952 260.592 128.16 262.659 132.128C264.808 136.096 268.322 138.08 273.199 138.08C276.836 138.08 279.564 137.088 281.383 135.104C283.284 133.037 284.235 130.103 284.235 126.3C284.235 122.167 283.367 118.736 281.631 116.008C279.895 113.28 277.126 110.263 273.323 106.956L256.459 92.076C253.07 89.1 250.59 85.9173 249.019 82.528C247.531 79.056 246.787 74.84 246.787 69.88C246.787 62.5227 248.895 56.8187 253.111 52.768C257.327 48.7173 263.072 46.692 270.347 46.692C278.283 46.692 284.276 48.8 288.327 53.016C292.378 57.232 294.816 63.7627 295.643 72.608L283.739 75.832C283.326 69.9627 282.168 65.4573 280.267 62.316C278.448 59.092 275.142 57.48 270.347 57.48C266.792 57.48 264.064 58.4307 262.163 60.332C260.262 62.1507 259.311 64.8787 259.311 68.516C259.311 71.492 259.807 74.0133 260.799 76.08C261.791 78.064 263.486 80.0893 265.883 82.156L282.871 97.036C287.252 100.921 290.724 105.137 293.287 109.684C295.932 114.231 297.255 119.397 297.255 125.184C297.255 132.541 295.023 138.369 290.559 142.668C286.095 146.967 280.308 149.116 273.199 149.116Z" fill="#0D6EFD"/>
</svg>
